<svg width="285" height="411" viewBox="0 0 285 411" fill="none" xmlns="http://www.w3.org/2000/svg">
<g id="body">
<g id="right-hand">
<path id="Vector" d="M22.504 141.772C23.2377 139.563 24.8041 137.728 26.8701 136.657C28.9361 135.586 31.3385 135.363 33.5662 136.036C34.0168 136.18 34.4548 136.361 34.8756 136.577L81.5068 97.3264L90.73 115.835L38.1852 148.826C37.1536 150.501 35.5964 151.788 33.7565 152.485C31.9167 153.183 29.8977 153.252 28.0147 152.681C26.9464 152.346 25.9546 151.804 25.0958 151.085C24.237 150.367 23.5281 149.486 23.0095 148.494C22.491 147.502 22.1731 146.417 22.0738 145.302C21.9745 144.186 22.0958 143.063 22.4309 141.994C22.4542 141.92 22.4786 141.846 22.504 141.772Z" fill="#003816"/>
<path id="Vector_2" d="M167.928 17C167.928 17 156.591 28.0222 143.532 40.7835C139.42 44.7995 135.14 48.9925 130.98 53.0675C117.463 66.3366 105.309 78.3462 104.949 79.0628C104.115 80.6901 100.487 82.4267 95.8956 83.7619C94.9737 84.0264 91.9234 86.0941 87.6369 89.2317C82.0099 93.3467 74.2594 99.2964 66.3821 105.436C60.0827 110.339 53.7092 115.36 48.2861 119.651C39.8757 126.326 33.7552 131.227 33.7552 131.227L42.5084 148.09C42.5084 148.09 111.611 108.2 114.872 102.001C118.141 95.7967 115.981 101.425 120.913 102.245C125.846 103.064 121.767 99.548 124.007 92.7068C126.239 85.8701 126.103 90.5371 131.496 92.2446C133.492 92.8763 140.337 85.5941 148.164 76.1681C151.792 71.7837 155.641 66.9352 159.318 62.2101C166.903 52.4479 173.736 43.1889 176.431 39.5253C176.44 39.5207 176.445 39.5073 176.454 39.5027L177.636 37.8746L167.928 17Z" fill="#F2F2F2"/>
</g>
<g id="body_2">
<path id="Vector_3" d="M252.372 410.04L214.88 410.039V409.565C214.88 405.695 216.418 401.983 219.154 399.247C221.891 396.51 225.603 394.972 229.473 394.972L236.322 389.777L249.1 394.973L252.373 394.973L252.372 410.04Z" fill="#F2F2F2"/>
<path id="Vector_4" d="M234.919 389.791L202.886 409.274L202.64 408.869C200.629 405.562 200.014 401.592 200.93 397.832C201.846 394.071 204.218 390.829 207.524 388.817L210.676 380.819L224.293 378.618L227.089 376.918L234.919 389.791Z" fill="#F2F2F2"/>
<g id="body_3">
<g id="body_4">
<path id="Vector_5" d="M256.943 283.565C256.773 284.765 256.523 288.845 256.233 294.785C254.823 323.585 252.373 396.095 252.373 396.095L237.103 391.345C237.103 391.345 218.943 336.565 221.943 306.565L219.783 296.125L216.083 278.285V278.275L204.813 223.945C204.813 223.945 202.343 238.665 202.143 242.115C201.943 245.565 199.943 246.565 198.943 246.565C193.933 246.565 195.473 245.675 196.203 250.625C196.733 254.185 192.393 274.595 189.913 285.755C188.953 290.095 188.273 293.035 188.273 293.035L192.513 302.175L227.663 377.975L214.373 385.095L161.353 306.515L156.123 298.765L155.003 290.075L146.183 221.705C146.183 221.705 143.433 213.975 146.183 213.775C148.943 213.565 150.503 214.435 149.723 211.505C148.943 208.565 164.943 159.565 164.943 159.565L247.943 177.565C247.943 177.565 256.123 193.825 252.943 201.565C249.753 209.305 255.553 269.245 252.243 271.906C248.943 274.565 246.813 272.435 251.373 277.005C252.07 277.733 252.894 278.329 253.803 278.765C256.623 280.045 257.743 277.965 256.943 283.565Z" fill="#F2F2F2"/>
<path id="Vector_6" d="M255.94 157.566C249.94 151.626 251.05 124.556 251.05 124.556C251.05 124.556 257.02 33.6562 248.94 27.5662C243.353 23.5339 237.408 20.0225 231.18 17.0762C230.82 16.9162 230.63 16.8262 230.63 16.8262L225.47 2.27618L193.68 0.62619L188.13 11.4062C188.13 11.4062 187.26 11.4662 185.9 11.6562C180.82 12.3562 168.88 14.8362 169.94 22.5662C171.28 32.3662 161.82 92.5562 158.94 95.5662C156.06 98.5762 156.82 109.576 163.94 116.566C171.06 123.556 165.94 142.566 160.94 150.566C157.939 155.463 156.554 161.179 156.98 166.906C156.98 166.906 160.94 188.566 170.94 181.566C174.75 178.896 180.16 178.556 186.67 179.046C186.733 179.051 186.802 179.059 186.866 179.064L186.67 180.046C195.71 180.716 206.88 182.986 218.83 182.856L218.476 181.852C218.595 181.851 218.711 181.858 218.83 181.856C220.85 181.836 222.88 181.746 224.94 181.566C242.76 180.016 250.63 184.916 252.94 179.566C255.25 174.216 261.94 163.506 255.94 157.566Z" fill="#F2F2F2"/>
</g>
<path id="Vector_7" d="M235.373 21.0953C214.494 29.2051 195.722 30.6031 180.373 21.0953V3.09531C198.45 13.9417 216.79 13.6452 235.373 3.09531V21.0953Z" fill="#043F0D"/>
<path id="Vector_8" d="M251.373 136.095C219.105 144.205 190.094 145.603 166.373 136.095V118.095C194.31 128.942 222.654 128.645 251.373 118.095V136.095Z" fill="#043F0D"/>
<path id="Vector_9" d="M256.943 283.565C256.773 284.765 256.523 288.845 256.233 294.785C244.185 296.737 231.942 297.188 219.783 296.125L216.083 278.285C228.54 280.56 241.292 280.722 253.803 278.765C256.623 280.045 257.743 277.965 256.943 283.565Z" fill="#043F0D"/>
<path id="Vector_10" d="M192.513 302.175C182.26 304.457 171.839 305.908 161.353 306.515L156.123 298.765L155.003 290.075C166.79 290.379 178.556 288.923 189.913 285.755C188.953 290.095 188.273 293.035 188.273 293.035L192.513 302.175Z" fill="#043F0D"/>
<path id="Vector_11" d="M195.373 59.0953C195.373 61.7475 194.319 64.291 192.444 66.1664C190.568 68.0417 188.025 69.0953 185.373 69.0953C182.721 69.0953 180.177 68.0417 178.302 66.1664C176.426 64.291 175.373 61.7475 175.373 59.0953C175.373 53.5725 184.373 42.0953 185.373 49.0953C186.373 56.0953 195.373 53.5725 195.373 59.0953Z" fill="#003816"/>
<path id="Vector_12" d="M186.46 42.14C186.1 42.11 185.74 42.1 185.37 42.1C181.017 42.1054 176.831 43.7781 173.673 46.7744C170.515 49.7707 168.624 53.863 168.39 58.21C168.38 58.5 168.37 58.8 168.37 59.1C168.37 59.51 168.38 59.91 168.42 60.31C168.671 63.8697 170.038 67.2598 172.325 69.9992C174.612 72.7387 177.703 74.6883 181.161 75.5715C184.618 76.4547 188.266 76.2266 191.587 74.9196C194.907 73.6126 197.732 71.293 199.66 68.29C200.047 67.6971 200.395 67.0791 200.7 66.44C201.902 63.9326 202.471 61.1685 202.355 58.3902C202.24 55.6119 201.445 52.9043 200.039 50.5052C198.633 48.1061 196.659 46.0887 194.292 44.6302C191.924 43.1717 189.235 42.3166 186.46 42.14ZM198.2 68C196.632 69.8861 194.672 71.4086 192.456 72.4619C190.241 73.5153 187.823 74.0742 185.37 74.1C181.717 74.0946 178.192 72.7586 175.453 70.3419C172.714 67.9252 170.95 64.5935 170.49 60.97C170.41 60.3499 170.369 59.7253 170.37 59.1C170.368 59.0132 170.372 58.9264 170.38 58.84C170.449 54.9089 172.058 51.1618 174.861 48.4051C177.665 45.6484 181.438 44.1025 185.37 44.1C185.46 44.34 185.55 44.57 185.65 44.79C189.92 54.89 199.18 54.13 200.37 59.1C200.946 61.5025 200.596 64.0337 199.39 66.19C199.051 66.8294 198.653 67.4354 198.2 68Z" fill="#003816"/>
</g>
</g>
<g id="left-hand">
<path id="Vector_13" d="M217.728 199.376C217.394 197.073 217.973 194.731 219.34 192.848C220.707 190.964 222.755 189.689 225.048 189.293C225.516 189.22 225.989 189.185 226.462 189.19L250.569 133.208L267.106 145.624L234.908 198.658C234.736 200.618 233.92 202.466 232.587 203.914C231.255 205.362 229.481 206.328 227.541 206.661C226.436 206.84 225.307 206.799 224.217 206.542C223.127 206.284 222.099 205.815 221.191 205.16C220.283 204.505 219.513 203.678 218.924 202.725C218.336 201.772 217.941 200.713 217.762 199.608C217.75 199.531 217.738 199.454 217.728 199.376Z" fill="#003816"/>
<path id="Vector_14" d="M283.443 104.385C280.443 108.385 276.443 103.875 280.443 109.635C283.193 113.595 267.433 150.715 257.343 173.455C252.783 183.745 249.373 191.095 249.373 191.095L232.363 181.245L230.373 180.095C230.373 180.095 245.973 140.835 250.993 126.725C251.823 124.385 252.373 122.735 252.503 122.075C253.443 117.385 253.563 113.365 252.503 111.875C252.252 111.32 252.038 110.749 251.863 110.165C249.853 104.275 243.733 84.3853 238.003 65.5753C236.333 60.0553 234.683 54.6353 233.183 49.6853C229.333 36.9753 226.443 27.3853 226.443 27.3853L249.443 28.3853C249.443 28.3853 249.823 29.0253 250.493 30.1853C252.093 32.9453 255.373 38.6353 259.173 45.4753C261.913 50.3953 264.933 55.9253 267.783 61.3653C275.043 75.2053 281.293 88.5353 279.443 90.3853C275.443 94.3853 271.353 92.1153 276.393 97.2453C281.443 102.385 286.443 100.385 283.443 104.385Z" fill="#F2F2F2"/>
</g>
</g>
</svg>
