<svg width="87" height="84" viewBox="0 0 87 84" fill="none" xmlns="http://www.w3.org/2000/svg">
<g id="head">
<path id="Vector" d="M46.3728 80.0953C68.4642 80.0953 86.3728 62.1867 86.3728 40.0953C86.3728 18.0039 68.4642 0.0953369 46.3728 0.0953369C24.2814 0.0953369 6.3728 18.0039 6.3728 40.0953C6.3728 62.1867 24.2814 80.0953 46.3728 80.0953Z" fill="#F2F2F2"/>
<path id="Vector_2" d="M40.3728 83.0953C62.4642 83.0953 80.3728 65.1867 80.3728 43.0953C80.3728 21.0039 62.4642 3.09534 40.3728 3.09534C18.2814 3.09534 0.372803 21.0039 0.372803 43.0953C0.372803 65.1867 18.2814 83.0953 40.3728 83.0953Z" fill="#F2F2F2"/>
<path id="Vector_3" d="M40.1128 68.0156C52.8461 68.0156 63.1685 57.6932 63.1685 44.9599C63.1685 32.2266 52.8461 21.9042 40.1128 21.9042C27.3795 21.9042 17.0571 32.2266 17.0571 44.9599C17.0571 57.6932 27.3795 68.0156 40.1128 68.0156Z" fill="#A0616A"/>
<path id="Vector_4" d="M58.0796 64.8162L48.9396 66.5662C48.9396 66.5662 57.4396 52.8462 56.9396 46.5662C56.4396 40.2862 49.5996 38.0362 49.5996 38.0362C49.5996 38.0362 45.8096 38.8562 41.8196 39.3162C41.3417 37.9707 40.7215 36.6801 39.9696 35.4662C39.8216 37.0333 39.1279 38.4985 38.0096 39.6062C36.5473 39.7318 35.0747 39.5618 33.6796 39.1062C32.0996 38.3862 32.1295 37.1362 32.6495 35.9662C27.4997 36.3912 22.4741 37.7714 17.8296 40.0362C17.5996 36.9661 17.717 33.8799 18.1796 30.8362C18.3996 30.7762 18.6196 30.7063 18.8396 30.6362C20.2025 30.205 21.5164 29.6319 22.7596 28.9262C21.3761 28.7426 20.0834 28.1347 19.0596 27.1862C19.8996 24.7262 21.2396 22.5962 23.3496 21.5562C25.3853 20.5606 27.6112 20.0141 29.8765 19.9537C32.1419 19.8933 34.3937 20.3205 36.4796 21.2062C36.4796 21.2062 31.5897 17.6362 33.3896 16.1762C33.5096 16.2962 33.6296 16.4062 33.7596 16.5162C33.9296 16.6562 34.1196 16.8062 34.2996 16.9462C35.4096 17.8462 37.0696 16.5762 37.2896 15.2162C37.3132 15.0445 37.3467 14.8742 37.3896 14.7062C37.4196 14.5662 37.4596 14.4262 37.4996 14.2962C37.5335 14.1808 37.5736 14.0673 37.6196 13.9562C40.9496 13.1562 51.0196 16.4062 54.8896 23.5662C54.8896 23.5662 81.9396 36.5662 58.0796 64.8162Z" fill="#3F3D56"/>
<path id="Vector_5" opacity="0.3" d="M40.3728 73.0953C56.9413 73.0953 70.3728 59.6639 70.3728 43.0953C70.3728 26.5268 56.9413 13.0953 40.3728 13.0953C23.8043 13.0953 10.3728 26.5268 10.3728 43.0953C10.3728 59.6639 23.8043 73.0953 40.3728 73.0953Z" fill="#6AFF7F"/>
</g>
</svg>
