<svg width="565" height="347" viewBox="0 0 565 347" fill="none" xmlns="http://www.w3.org/2000/svg">
<g id="stars">
<path id="Vector" d="M0.309998 51.94C0.248443 52.1959 0.143603 52.4394 0 52.66V49.87C0.365156 50.4946 0.476146 51.2358 0.309998 51.94Z" fill="#FF6584"/>
<path id="Vector_2" d="M8.20078 62.532C8.40143 60.7363 7.55143 59.1674 6.30225 59.0279C5.05308 58.8883 3.87776 60.2308 3.67712 62.0265C3.47647 63.8222 4.32647 65.3911 5.57565 65.5306C6.82482 65.6702 8.00014 64.3277 8.20078 62.532Z" fill="#E6E6E6"/>
<path id="Vector_3" d="M504.96 252.866C505.449 250.938 503.599 248.806 500.827 248.103C498.056 247.401 495.413 248.395 494.925 250.323C494.436 252.25 496.287 254.383 499.058 255.085C501.829 255.787 504.472 254.794 504.96 252.866Z" fill="white"/>
<path id="Vector_4" d="M519.201 291.532C519.401 289.736 518.551 288.167 517.302 288.028C516.053 287.888 514.878 289.231 514.677 291.026C514.476 292.822 515.326 294.391 516.576 294.531C517.825 294.67 519 293.328 519.201 291.532Z" fill="#E6E6E6"/>
<path id="Vector_5" d="M487.383 272.324C487.584 270.528 486.734 268.959 485.485 268.82C484.236 268.68 483.06 270.023 482.86 271.818C482.659 273.614 483.509 275.183 484.758 275.323C486.007 275.462 487.183 274.12 487.383 272.324Z" fill="#E6E6E6"/>
<path id="Vector_6" d="M49.9605 15.8659C50.4491 13.9379 48.5985 11.8057 45.8272 11.1034C43.0558 10.4011 40.4131 11.3946 39.9245 13.3225C39.436 15.2504 41.2865 17.3826 44.0579 18.085C46.8292 18.7873 49.4719 17.7938 49.9605 15.8659Z" fill="white"/>
<path id="Vector_7" d="M64.2008 54.532C64.4014 52.7363 63.5514 51.1674 62.3023 51.0279C61.0531 50.8883 59.8778 52.2308 59.6771 54.0265C59.4765 55.8222 60.3265 57.391 61.5756 57.5306C62.8248 57.6702 64.0001 56.3276 64.2008 54.532Z" fill="#E6E6E6"/>
<path id="Vector_8" d="M32.3834 35.3239C32.584 33.5282 31.734 31.9594 30.4849 31.8198C29.2357 31.6802 28.0604 33.0228 27.8597 34.8184C27.6591 36.6141 28.5091 38.183 29.7583 38.3225C31.0074 38.4621 32.1828 37.1196 32.3834 35.3239Z" fill="#E6E6E6"/>
<path id="Vector_9" d="M158.373 159.095C160.582 159.095 162.373 157.304 162.373 155.095C162.373 152.886 160.582 151.095 158.373 151.095C156.164 151.095 154.373 152.886 154.373 155.095C154.373 157.304 156.164 159.095 158.373 159.095Z" fill="white"/>
<path id="Vector_10" d="M60.3728 197.095C61.4774 197.095 62.3728 196.2 62.3728 195.095C62.3728 193.991 61.4774 193.095 60.3728 193.095C59.2682 193.095 58.3728 193.991 58.3728 195.095C58.3728 196.2 59.2682 197.095 60.3728 197.095Z" fill="white"/>
<path id="Vector_11" d="M457.373 346.095C458.477 346.095 459.373 345.2 459.373 344.095C459.373 342.991 458.477 342.095 457.373 342.095C456.268 342.095 455.373 342.991 455.373 344.095C455.373 345.2 456.268 346.095 457.373 346.095Z" fill="white"/>
<path id="Vector_12" d="M199.373 254.095C200.477 254.095 201.373 253.2 201.373 252.095C201.373 250.991 200.477 250.095 199.373 250.095C198.268 250.095 197.373 250.991 197.373 252.095C197.373 253.2 198.268 254.095 199.373 254.095Z" fill="white"/>
<path id="Vector_13" d="M235.373 45.0953C236.477 45.0953 237.373 44.1999 237.373 43.0953C237.373 41.9908 236.477 41.0953 235.373 41.0953C234.268 41.0953 233.373 41.9908 233.373 43.0953C233.373 44.1999 234.268 45.0953 235.373 45.0953Z" fill="white"/>
<path id="Vector_14" d="M562.373 122.095C563.477 122.095 564.373 121.2 564.373 120.095C564.373 118.991 563.477 118.095 562.373 118.095C561.268 118.095 560.373 118.991 560.373 120.095C560.373 121.2 561.268 122.095 562.373 122.095Z" fill="white"/>
<path id="Vector_15" d="M97.3728 18.0953C98.4774 18.0953 99.3728 17.1999 99.3728 16.0953C99.3728 14.9908 98.4774 14.0953 97.3728 14.0953C96.2682 14.0953 95.3728 14.9908 95.3728 16.0953C95.3728 17.1999 96.2682 18.0953 97.3728 18.0953Z" fill="white"/>
<path id="Vector_16" d="M461.373 8.09534C463.582 8.09534 465.373 6.30448 465.373 4.09534C465.373 1.8862 463.582 0.0953369 461.373 0.0953369C459.164 0.0953369 457.373 1.8862 457.373 4.09534C457.373 6.30448 459.164 8.09534 461.373 8.09534Z" fill="white"/>
</g>
</svg>
